<svg xmlns="http://www.w3.org/2000/svg" xmlns:xlink="http://www.w3.org/1999/xlink" width="800" height="600" viewBox="0 0 800 600">
  <defs>
    <linearGradient id="grad1" x1="0%" y1="0%" x2="100%" y2="0%">
      <stop offset="0%" style="stop-color:#3B82F6;stop-opacity:1" />
      <stop offset="100%" style="stop-color:#6366F1;stop-opacity:1" />
    </linearGradient>
    <linearGradient id="grad2" x1="0%" y1="0%" x2="100%" y2="0%">
      <stop offset="0%" style="stop-color:#60A5FA;stop-opacity:1" />
      <stop offset="100%" style="stop-color:#A5B4FC;stop-opacity:1" />
    </linearGradient>
  </defs>
  
  <!-- Arka plan şekli -->
  <rect x="20" y="50" rx="20" ry="20" width="760" height="480" fill="#EFF6FF" />
  
  <!-- Kamyon Gövdesi -->
  <rect x="150" y="350" width="400" height="180" rx="10" ry="10" fill="url(#grad1)" stroke="#2563EB" stroke-width="2" />
  
  <!-- Kabin -->
  <rect x="550" y="380" width="150" height="150" rx="10" ry="10" fill="url(#grad1)" stroke="#2563EB" stroke-width="2" />
  
  <!-- Ön cam -->
  <polygon points="570,400 680,400 650,450 600,450" fill="#DBEAFE" stroke="#2563EB" stroke-width="2" />
  
  <!-- Tekerlekler -->
  <circle cx="220" cy="550" r="40" fill="#1E3A8A" stroke="#000" stroke-width="2" />
  <circle cx="220" cy="550" r="15" fill="#64748B" stroke="#000" stroke-width="2" />
  
  <circle cx="480" cy="550" r="40" fill="#1E3A8A" stroke="#000" stroke-width="2" />
  <circle cx="480" cy="550" r="15" fill="#64748B" stroke="#000" stroke-width="2" />
  
  <circle cx="650" cy="550" r="40" fill="#1E3A8A" stroke="#000" stroke-width="2" />
  <circle cx="650" cy="550" r="15" fill="#64748B" stroke="#000" stroke-width="2" />
  
  <!-- Logo -->
  <circle cx="600" cy="420" r="15" fill="#fff" />
  <text x="592" y="425" font-family="Arial" font-size="16" font-weight="bold" fill="#3B82F6">T</text>
  
  <!-- Kargolar -->
  <rect x="200" y="270" width="80" height="80" rx="5" ry="5" fill="#FCD34D" stroke="#F59E0B" stroke-width="2" />
  <rect x="300" y="250" width="100" height="100" rx="5" ry="5" fill="#FCA5A5" stroke="#EF4444" stroke-width="2" />
  <rect x="420" y="290" width="60" height="60" rx="5" ry="5" fill="#A7F3D0" stroke="#10B981" stroke-width="2" />
  
  <!-- Yol -->
  <rect x="20" y="590" width="760" height="10" fill="#64748B" />
  <rect x="20" y="580" width="760" height="10" fill="#CBD5E1" />
  
  <!-- Bulutlar -->
  <ellipse cx="150" cy="120" rx="60" ry="40" fill="#fff" stroke="#E2E8F0" stroke-width="1" />
  <ellipse cx="180" cy="100" rx="50" ry="30" fill="#fff" stroke="#E2E8F0" stroke-width="1" />
  <ellipse cx="210" cy="130" rx="40" ry="25" fill="#fff" stroke="#E2E8F0" stroke-width="1" />
  
  <ellipse cx="550" cy="150" rx="70" ry="40" fill="#fff" stroke="#E2E8F0" stroke-width="1" />
  <ellipse cx="590" cy="120" rx="60" ry="35" fill="#fff" stroke="#E2E8F0" stroke-width="1" />
  <ellipse cx="630" cy="160" rx="50" ry="30" fill="#fff" stroke="#E2E8F0" stroke-width="1" />
  
  <!-- Başlık -->
  <text x="400" y="120" font-family="Arial" font-size="30" font-weight="bold" text-anchor="middle" fill="#1E40AF">Taşı.app</text>
  <text x="400" y="160" font-family="Arial" font-size="20" text-anchor="middle" fill="#3B82F6">Güvenli ve Hızlı Taşımacılık</text>
</svg> 