<svg xmlns="http://www.w3.org/2000/svg" width="400" height="300" viewBox="0 0 400 300">
  <rect width="400" height="300" fill="#F0FDF4" />
  
  <!-- Koltuk -->
  <rect x="220" y="140" width="140" height="80" rx="10" ry="10" fill="#16A34A" stroke="#166534" stroke-width="2" />
  <rect x="210" y="140" width="20" height="60" rx="5" ry="5" fill="#166534" stroke="#166534" stroke-width="1" />
  <rect x="350" y="140" width="20" height="60" rx="5" ry="5" fill="#166534" stroke="#166534" stroke-width="1" />
  <rect x="220" y="220" width="140" height="15" rx="5" ry="5" fill="#166534" stroke="#166534" stroke-width="1" />
  <rect x="240" y="120" width="100" height="20" rx="8" ry="8" fill="#16A34A" stroke="#166534" stroke-width="2" />
  
  <!-- Sehpa -->
  <rect x="270" y="240" width="60" height="10" rx="2" ry="2" fill="#166534" />
  <rect x="280" y="250" width="10" height="30" fill="#166534" />
  <rect x="310" y="250" width="10" height="30" fill="#166534" />
  
  <!-- İnsanlar -->
  <circle cx="70" cy="180" r="20" fill="#4ADE80" />
  <rect x="60" y="200" width="20" height="40" fill="#4ADE80" />
  <rect x="50" y="210" width="10" height="30" fill="#4ADE80" />
  <rect x="80" y="210" width="10" height="30" fill="#4ADE80" />
  
  <circle cx="120" cy="180" r="20" fill="#4ADE80" />
  <rect x="110" y="200" width="20" height="40" fill="#4ADE80" />
  <rect x="100" y="210" width="10" height="30" fill="#4ADE80" />
  <rect x="130" y="210" width="10" height="30" fill="#4ADE80" />
  
  <!-- Taşıma ipuçları -->
  <path d="M70 150 C 70 120, 290 120, 290 140" stroke="#166534" stroke-width="2" fill="none" stroke-dasharray="5 3" />
  <polygon points="290,140 280,130 300,125" fill="#166534" />
  
  <!-- Başlık -->
  <text x="200" y="30" font-family="Arial" font-size="16" font-weight="bold" text-anchor="middle" fill="#166534">Mobilya Taşıma Hizmeti</text>
  <text x="95" y="150" font-family="Arial" font-size="10" fill="#166534">Profesyonel Ekip</text>
</svg> 